<svg xmlns="http://www.w3.org/2000/svg" xmlns:xlink="http://www.w3.org/1999/xlink"
    viewBox="0 0 332.17 238.25">
    <defs>
        <style>.cls-1{fill:none;}.cls-2{clip-path:url(#clip-path);}.cls-3{fill:red;}</style>
        <clipPath id="clip-path">
            <rect class="cls-1" width="332.17" height="238.25" />
        </clipPath>
    </defs>
    <g id="Layer_2" data-name="Layer 2">
        <g id="Layer_2-2" data-name="Layer 2">
            <g class="cls-2">
                <path
                    d="M241.57,100.15a1.48,1.48,0,0,0-1.48-1.48h-148a1.48,1.48,0,0,0-1.48,1.48V102h151Z" fill="white"/>
                <path
                    d="M156,37.67c-7.93,10.91-15.38,32.06-22,40.17a90.54,90.54,0,0,0,8,12.75c5.2-5.49,5.63-5.94,12.32-12.75-4.74-15.83-4-29.6,1.82-40.17,0,0-.08,0-.11,0" fill="white"/>
                <path
                    d="M120.9,90.59a102.41,102.41,0,0,1,12.64-12.75c-1.6-17.59,1.7-31.57,13.92-41.17h-.09C140,41.85,133,49.83,115.55,77.84a80.83,80.83,0,0,0,5.35,12.75" fill="white"/>
                <path
                    d="M102.61,77.84a49.19,49.19,0,0,0,1.75,12.75c4.74-6,6.53-8,10.82-12.75,2-25.44,23.27-40.36,25.47-41.57h-.06c-10.07,5.28-22.24,16-38,41.57" fill="white"/>
                <path
                    d="M177.54,77.84C171.2,65.46,167,54.16,166.16,37.67H166c-.81,16.49-5,27.79-11.38,40.17,4.13,4.79,5.11,5.93,11.46,12.75,6.35-6.82,7.33-8,11.46-12.75" fill="white"/>
                <path
                    d="M190.25,90.59a90.33,90.33,0,0,0,8-12.75c-6.65-8.12-14.1-29.26-22-40.17,0,0-.07,0-.1,0C182,48.24,182.67,62,177.92,77.84c6.7,6.81,7.12,7.26,12.33,12.75" fill="white"/>
                <path
                    d="M198.63,77.84a103.1,103.1,0,0,1,12.64,12.75,81.65,81.65,0,0,0,5.34-12.75c-17.4-28-24.45-36-31.82-41.17h-.08c12.22,9.6,15.51,23.58,13.92,41.17" fill="white"/>
                <path
                    d="M217,77.84c4.28,4.74,6.08,6.75,10.82,12.75a49.19,49.19,0,0,0,1.75-12.75c-15.75-25.55-27.91-36.29-38-41.57h-.06C193.72,37.48,215,52.4,217,77.84" fill="white"/>
                <path
                    d="M229.93,77.84c2,2.8,6,8.31,8.62,12.75,0-25.94-24.15-46.82-42.73-54.35,0,0,0,0,0,0,27.67,12.38,34,37.55,34.14,41.6" fill="white"/>
                <path
                    d="M136.38,36.24s0,0,0,0c-18.58,7.53-42.73,28.41-42.73,54.35,2.58-4.44,6.59-10,8.62-12.75.15-4,6.47-29.22,34.15-41.6" fill="white"/>
                <path
                    d="M158.92,130.83v-2.48c0-14.27,3.16-18.08,3.16-18.08H139.36s3.16,3.81,3.16,18.08v2.48Z" fill="white"/>
                <path
                    d="M189.64,130.83v-2.48c0-14.27,3.16-18.08,3.16-18.08H170.09s3.16,3.81,3.16,18.08v2.48Z" fill="white"/>
                <path
                    d="M235.4,130.83v-2.48c0-14.27,1.64-18.08,1.64-18.08H225.21s1.65,3.81,1.65,18.08v2.48Z" fill="white"/>
                <path
                    d="M105.31,130.83v-2.48c0-14.27,1.64-18.08,1.64-18.08H95.12s1.65,3.81,1.65,18.08v2.48Z" fill="white"/>
                <path
                    d="M214.92,130.83v-2.48c0-14.27,2.28-18.08,2.28-18.08H200.81s2.28,3.81,2.28,18.08v2.48Z" fill="white"/>
                <path
                    d="M129.07,130.83v-2.48c0-14.27,2.28-18.08,2.28-18.08H115s2.28,3.81,2.28,18.08v2.48Z" fill="white"/>
                <path
                    d="M166.08,25.58a31.24,31.24,0,0,1,10.29,1.73,0,0,0,0,0,.06,0s0-.05,0-.06L167,20.15v0a2.1,2.1,0,0,0,0-3.76V15l1.16-.87L166.11,0a0,0,0,0,0,0,0,0,0,0,0,0,0,0L164,14.1l1.17.87v1.39a2.1,2.1,0,0,0,0,3.76v0l-9.39,7.08a0,0,0,0,0,0,.08,31.15,31.15,0,0,1,10.29-1.73" fill="white"/>
                <path class="cls-3"
                    d="M166.08,138.91A476.7,476.7,0,0,0,45.29,154.38,52.46,52.46,0,0,0,59.66,160a362.35,362.35,0,0,1,212.84,0,52.34,52.34,0,0,0,14.37-5.66,476.7,476.7,0,0,0-120.79-15.47" fill="white"/>
                <path
                    d="M13.27,229.42c0,3.52-1.22,5.17-4.57,5.17s-4.55-1.65-4.55-5.17V218.54H.4v11.84c0,4.88,2.46,7.87,8.3,7.87s8.32-3,8.32-7.87V218.54H13.27Z" fill="white"/>
                <polygon
                    points="34.21 232.24 25.82 218.54 21.53 218.54 21.53 237.94 25.26 237.94 25.26 224.23 33.66 237.94 37.96 237.94 37.96 218.54 34.21 218.54 34.21 232.24" fill="white"/>
                <rect x="42.56" y="218.54" width="3.75" height="19.4" fill="white"/>
                <polygon
                    points="57.78 234.3 52.99 218.54 48.95 218.54 55.05 237.94 60.48 237.94 66.63 218.54 62.58 218.54 57.78 234.3" fill="white"/>
                <polygon
                    points="72.78 229.76 80.36 229.76 80.36 226.26 72.78 226.26 72.78 222.03 81.17 222.03 81.17 218.54 69.02 218.54 69.02 237.94 81.22 237.94 81.22 234.42 72.78 234.42 72.78 229.76" fill="white"/>
                <path
                    d="M99.35,224.3c0-4.12-2.83-5.76-6.92-5.76H84.78v19.4h3.76v-7.61h2.72l4.52,7.61h4.14L95.09,230a5.55,5.55,0,0,0,4.26-5.7M92.67,227H88.54v-5h4.13c3,0,2.9,2.09,2.9,2.42,0,1.7-1.08,2.58-2.9,2.58" fill="white" />
                <path
                    d="M111.11,226.57c-3.22-.83-4.47-1.27-4.47-3s1.69-2,3.28-2a9.7,9.7,0,0,1,5.21,1.45l1.43-3.13a12.83,12.83,0,0,0-6.67-1.7c-4.4,0-7,2.18-7,5.41s1.93,4.94,5.07,5.81,5.22,1.34,5.22,3.13c0,1.42-1.34,2.32-3.9,2.32a10.14,10.14,0,0,1-5.58-1.55l-1.43,3.13a13.37,13.37,0,0,0,7.15,1.8c5.64,0,7.56-2.92,7.56-5.79s-1.68-4.74-5.84-5.89" fill="white"/>
                <rect x="120.5" y="218.54" width="3.75" height="19.4" fill="white"/>
                <polygon
                    points="127.11 222.06 133.25 222.06 133.25 237.94 137.01 237.94 137.01 222.06 143.18 222.06 143.18 218.54 127.11 218.54 127.11 222.06" fill="white"/>
                <polygon
                    points="158.77 218.54 153.94 227.12 149.11 218.54 144.87 218.54 152.05 230.64 152.05 237.94 155.83 237.94 155.83 230.64 163 218.54 158.77 218.54" fill="white"/>
                <path
                    d="M180.23,218.2c-6,0-9.89,4.46-9.89,10s3.87,10.07,9.89,10.07,9.84-4.57,9.87-10.07-3.84-10-9.87-10m0,16.39c-3.61,0-6.08-2.82-6.11-6.41a6.1,6.1,0,1,1,12.2,0c0,3.59-2.5,6.41-6.09,6.41" fill="white"/>
                <polygon
                    points="205.18 222.06 205.18 218.54 192.75 218.54 192.75 237.94 196.5 237.94 196.5 229.78 204.35 229.78 204.35 226.26 196.5 226.26 196.5 222.06 205.18 222.06" fill="white"/>
                <path
                    d="M221,226.57c-3.22-.83-4.47-1.27-4.47-3s1.69-2,3.27-2a9.73,9.73,0,0,1,5.22,1.45l1.43-3.13a12.83,12.83,0,0,0-6.67-1.7c-4.4,0-7,2.18-7,5.41s1.93,4.94,5.07,5.81,5.22,1.34,5.22,3.13c0,1.42-1.35,2.32-3.9,2.32a10.14,10.14,0,0,1-5.58-1.55l-1.43,3.13a13.37,13.37,0,0,0,7.15,1.8c5.64,0,7.56-2.92,7.56-5.79s-1.68-4.74-5.84-5.89" fill="white"/>
                <polygon
                    points="241.6 226.26 233.18 226.26 233.18 218.54 229.43 218.54 229.43 237.93 233.18 237.93 233.18 229.8 241.6 229.8 241.6 237.93 245.36 237.93 245.36 218.54 241.6 218.54 241.6 226.26" fill="white"/>
                <path
                    d="M254.32,218.54l-7.08,19.39h3.9l1.65-4.73h7.65l1.68,4.73H266l-7.13-19.39Zm-.41,11.29,2.61-7.37.07-.24.07.24,2.63,7.37Z" fill="white"/>
                <path
                    d="M290.72,231.65c0,2.12-1,2.91-2.47,2.91a6.41,6.41,0,0,1-2.82-.69l-1.36,3.23a10.61,10.61,0,0,0,5,1.15c3.51,0,5.38-2.06,5.38-6.17V218.54h-3.75Z" fill="white"/>
                <path
                    d="M302.67,218.54l-7.08,19.39h3.9l1.65-4.73h7.65l1.68,4.73h3.87l-7.12-19.39Zm-.4,11.29,2.67-7.61,2.71,7.61Z" fill="white"/>
                <polygon
                    points="328.41 218.54 328.41 226.26 319.99 226.26 319.99 218.54 316.24 218.54 316.24 237.94 319.99 237.94 319.99 229.8 328.41 229.8 328.41 237.94 332.16 237.94 332.16 218.54 328.41 218.54" fill="white"/>
                <path
                    d="M282.45,224.3c0-4.12-2.83-5.76-6.91-5.76h-7.66v19.4h3.76v-7.61h2.72l4.52,7.61H283L278.19,230a5.55,5.55,0,0,0,4.26-5.7M275.78,227h-4.14v-5h4.14c3,0,2.89,2.09,2.89,2.42,0,1.7-1.08,2.58-2.89,2.58" fill="white"/>
                <path
                    d="M261.34,189.24a8.23,8.23,0,0,0-8.23,8.23,7.52,7.52,0,0,0,1.19,4.06H238l3.63-8.26a12.33,12.33,0,0,0-9.26-4,12.48,12.48,0,0,0-9.26,4l3.64,8.26h-34V189.24h-9.12a7.91,7.91,0,0,0,0,15.81h85.93v-7.58a8.22,8.22,0,0,0-8.22-8.23m-77.47,12.29a4.39,4.39,0,1,1,0-8.77H189v8.77Zm43.75-7.41a9.08,9.08,0,0,1,9.56,0l-3.25,7.41h-3.05Zm38.19,7.41h-4.64a4.31,4.31,0,0,1-4.3-4.3,4.47,4.47,0,0,1,8.94,0Z" fill="white"/>
                <path d="M318.11,207.77a2.22,2.22,0,1,0,2.23,2.22,2.23,2.23,0,0,0-2.23-2.22" fill="white"/>
                <path d="M15.14,186.42a2.22,2.22,0,1,0-2.22-2.22,2.22,2.22,0,0,0,2.22,2.22" fill="white"/>
                <path d="M9.36,186.42a2.22,2.22,0,1,0-2.22-2.22,2.21,2.21,0,0,0,2.22,2.22" fill="white"/>
                <path d="M190.87,186.42a2.22,2.22,0,1,0-2.22-2.22,2.21,2.21,0,0,0,2.22,2.22" fill="white" />
                <path d="M185.09,186.42a2.22,2.22,0,1,0-2.22-2.22,2.21,2.21,0,0,0,2.22,2.22" fill="white"/>
                <path d="M52.67,182a2.22,2.22,0,1,0,2.22,2.22A2.22,2.22,0,0,0,52.67,182" fill="white"/>
                <path d="M46.89,186.42a2.22,2.22,0,1,0-2.23-2.22,2.22,2.22,0,0,0,2.23,2.22" fill="white"/>
                <path
                    d="M152.62,201.53H139.13a2.62,2.62,0,0,1-2.62-2.62v-9.67h-3.76v8.55a4.25,4.25,0,1,1-8.49,0v-6.93H120.5v7.47a3.69,3.69,0,0,1-3.88,3.7,3.82,3.82,0,0,1-3.53-3.85v-7.32h-3.75v8a2.62,2.62,0,0,1-2.62,2.62H72.77v-19H69v22.5h37.7a6.34,6.34,0,0,0,4.57-2,7.44,7.44,0,0,0,11.24-.25,8,8,0,0,0,11.87.09,6.37,6.37,0,0,0,4.73,2.11h17.24v-22.5h-3.75Z" fill="white"/>
                <rect x="161.18" y="182.55" width="3.75" height="22.5" fill="white"/>
                <path d="M122.38,183.52a2.23,2.23,0,1,0-2.22-2.23,2.22,2.22,0,0,0,2.22,2.23" fill="white"/>
                <path d="M125.37,183.82A2.22,2.22,0,1,0,127.6,186a2.22,2.22,0,0,0-2.23-2.22" fill="white"/>
                <path d="M119.38,183.82a2.22,2.22,0,1,0,2.23,2.22,2.22,2.22,0,0,0-2.23-2.22" fill="white"/>
                <path
                    d="M39.92,200.28l.33,1.25H17V189.24H7.9a7.91,7.91,0,0,0,0,15.81H54.54V189.24H48.4a8.78,8.78,0,0,0-8.48,11M8.14,201.53a4.39,4.39,0,1,1,0-8.77h5.13v8.77Zm42.65,0H44.14l-.66-2.46a5,5,0,0,1,4.86-6.31h2.45Z" fill="white"/>
                <path
                    d="M328.45,197.89c-3.56-5-8.94-12.34-20.17-6.48l1.62,3.11c8-4.19,11.56-.4,15.68,5.4.42.6.83,1.13,1.21,1.61H278.12v-19h-3.76v22.5h57.8v-3.52c-.91,0-2.46-1.89-3.71-3.64" fill="white"/>
                <path
                    d="M60.47,189.24v14.14c0,.38-.08,3.61-5.07,3v3.51c7.91.89,8.82-5.24,8.82-6.71v-13.9Z" fill="white"/>
            </g>
        </g>
    </g>
</svg>